<?xml version="1.0" encoding="UTF-8"?>
<svg id="Layer_2" data-name="Layer 2" xmlns="http://www.w3.org/2000/svg" viewBox="0 0 587.52 100.55">
  <defs>
    <style>
      .cls-1 {
        fill: #ed1f24;
        stroke-width: 0px;
      }
    </style>
  </defs>
  <g id="Layer_1-2" data-name="Layer 1">
    <g>
      <path class="cls-1" d="m53.14,71.13l-1.41,26.13c-5.43,2.19-10.29,3.28-14.59,3.28-10.12,0-18.63-3.71-25.55-11.13C3.87,81.09,0,69.32,0,54.08c0-14.26,3.63-25.7,10.9-34.34,7.27-8.59,16.97-12.89,29.12-12.89,3.94,0,7.97.74,12.07,2.23v25.84c-3.63-3.63-7.36-5.45-11.19-5.45-5,0-8.91,2.13-11.72,6.39-2.81,4.3-4.22,10.23-4.22,17.81,0,3.67.35,6.95,1.05,9.84.7,2.89,1.71,5.33,3.02,7.32,1.31,1.99,2.92,3.52,4.83,4.57,1.91,1.05,4.1,1.58,6.56,1.58,4.22,0,8.46-1.95,12.71-5.86Z"/>
      <path class="cls-1" d="m85.31,98.96h-23.5V0h23.5v98.96Z"/>
      <path class="cls-1" d="m128.61,77.52l22.97.47c-1.64,7.38-4.83,12.94-9.58,16.67-4.75,3.73-10.95,5.6-18.6,5.6-9.06,0-16.17-2.81-21.33-8.44-5.12-5.7-7.68-13.5-7.68-23.38s2.75-18.22,8.26-24.55c5.51-6.37,12.62-9.55,21.33-9.55s15.59,3.07,20.74,9.2c5.16,6.17,7.73,14.36,7.73,24.55l-.12,4.16h-34.45c.27,6.48,2.11,9.73,5.51,9.73,2.66,0,4.39-1.48,5.21-4.45Zm.53-17.93c0-1.17-.14-2.25-.41-3.22-.27-.98-.65-1.82-1.14-2.52-.49-.7-1.06-1.26-1.73-1.67-.66-.41-1.39-.62-2.17-.62-1.64,0-2.97.75-3.98,2.26-1.02,1.5-1.52,3.43-1.52,5.77h10.96Z"/>
      <path class="cls-1" d="m218.09,98.96h-23.55c.19-2.11.35-4.12.47-6.04.12-1.91.23-3.46.35-4.63-4.06,7.97-9.51,11.95-16.35,11.95-5.94,0-10.65-2.97-14.12-8.91-3.44-5.9-5.16-14.06-5.16-24.49s1.78-18.01,5.33-23.79c3.55-5.86,8.4-8.79,14.53-8.79s11.37,3.79,15.23,11.37c-.08-.78-.14-1.46-.18-2.05-.04-.59-.08-1.07-.12-1.46l-.23-3.69-.18-2.81h23.96v63.34Zm-23.79-32.46c0-2.34-.09-4.34-.26-5.98-.18-1.64-.46-2.98-.85-4.01-.39-1.03-.9-1.78-1.52-2.23-.63-.45-1.39-.67-2.29-.67-3.98,0-5.98,5.29-5.98,15.88,0,7.58,1.78,11.37,5.33,11.37s5.57-4.78,5.57-14.36Z"/>
      <path class="cls-1" d="m252.42,98.96h-23.5v-63.34h23.5l-1.23,12.36c3.55-9.26,9.43-13.89,17.64-13.89v26.37c-2.58-1.41-4.77-2.11-6.56-2.11-3.16,0-5.6,1.14-7.29,3.43-1.7,2.29-2.55,5.62-2.55,9.99v27.19Z"/>
      <path class="cls-1" d="m274.57,96.74v-28.42c4.8,6.56,10,9.84,15.59,9.84,2.11,0,3.83-.56,5.16-1.67,1.33-1.11,1.99-2.51,1.99-4.19,0-2.42-1.45-4.78-4.34-7.09l-3.98-3.11c-2.66-1.99-4.92-3.97-6.8-5.95-1.87-1.97-3.4-4-4.57-6.09-1.17-2.09-2.03-4.25-2.58-6.47-.55-2.23-.82-4.57-.82-7.03,0-4.22.98-8.63,2.93-13.24.98-2.15,2.11-4.11,3.4-5.89,1.29-1.78,2.77-3.35,4.45-4.72,4.61-3.91,10.18-5.86,16.7-5.86,5.82,0,11.68,1.54,17.58,4.63v27.66c-1.99-3.09-4.26-5.52-6.8-7.29-2.54-1.78-5.04-2.67-7.5-2.67-1.87,0-3.42.55-4.63,1.64-1.25,1.05-1.87,2.32-1.87,3.81,0,2.42,1.66,4.82,4.98,7.21l3.87,2.87c5.16,3.71,8.85,7.52,11.07,11.43,2.27,3.91,3.4,8.48,3.4,13.71,0,8.91-2.72,16.25-8.14,22.03-5.43,5.78-12.3,8.67-20.62,8.67-5.74,0-11.89-1.27-18.46-3.81Z"/>
      <path class="cls-1" d="m387.54,68.26c0,9.77-2.7,17.54-8.09,23.32-5.39,5.78-12.62,8.67-21.68,8.67s-16-2.95-21.27-8.85c-5.23-5.94-7.85-13.91-7.85-23.91s2.68-18.03,8.03-24.08c5.31-6.09,12.36-9.14,21.15-9.14,9.26,0,16.52,3.03,21.8,9.08,5.27,6.06,7.91,14.36,7.91,24.9Zm-22.79-.76c0-2.34-.16-4.46-.47-6.36-.31-1.89-.76-3.52-1.35-4.86-.59-1.35-1.29-2.39-2.11-3.13-.82-.74-1.74-1.11-2.75-1.11-1.99,0-3.59,1.41-4.8,4.22-1.21,2.46-1.82,6.15-1.82,11.07s.6,8.54,1.82,11.07c1.21,2.81,2.83,4.22,4.86,4.22,1.91,0,3.5-1.39,4.75-4.16,1.25-3.09,1.87-6.74,1.87-10.96Z"/>
      <path class="cls-1" d="m396.62,35.62h23.5v35.68c0,3.4.33,5.88,1,7.44.7,1.29,2.03,1.93,3.98,1.93s3.2-.64,3.87-1.93c.7-1.29,1.05-3.77,1.05-7.44v-35.68h23.5v38.85c0,2.58-.21,4.91-.62,7-.41,2.09-1.05,3.98-1.93,5.68-.88,1.7-2.01,3.25-3.4,4.66-1.39,1.41-3.04,2.7-4.95,3.87-5.16,3.05-11,4.57-17.52,4.57s-12.44-1.52-17.52-4.57c-1.95-1.17-3.62-2.45-5.01-3.84-1.39-1.39-2.52-2.94-3.4-4.66-.88-1.72-1.52-3.62-1.93-5.71-.41-2.09-.62-4.42-.62-7v-38.85Z"/>
      <path class="cls-1" d="m520.14,98.96h-23.5v-33.52c0-2.89-.28-4.9-.85-6.04-.57-1.13-1.55-1.7-2.96-1.7-3.28,0-4.92,3.11-4.92,9.32v31.93h-23.5v-63.34h23.5c-.04,1.56-.08,3.01-.12,4.34-.04,1.33-.1,2.56-.18,3.69l-.23,4.04c3.79-8.94,9.34-13.42,16.64-13.42,5.08,0,9.02,1.9,11.84,5.68,2.85,3.79,4.28,9.06,4.28,15.82v43.18Z"/>
      <path class="cls-1" d="m563.5,98.96c.04-.66.08-1.43.12-2.29.04-.86.1-1.86.18-2.99.08-.7.14-1.78.18-3.22-2.27,3.67-4.47,6.23-6.62,7.68-2.11,1.41-4.71,2.11-7.79,2.11-6.37,0-11.37-2.85-15-8.55-3.59-5.7-5.39-13.63-5.39-23.79,0-10.66,1.76-18.93,5.27-24.79,3.52-5.9,8.48-8.85,14.88-8.85,3.52,0,6.35.78,8.5,2.34,2.27,1.56,4.45,4.28,6.56,8.14-.12-2.03-.18-3.26-.18-3.69l-.23-6.39V0h23.55v98.96h-24.02Zm-10.02-31.93c0,8.67,1.93,13.01,5.8,13.01,3.63,0,5.45-4.47,5.45-13.42s-1.76-12.83-5.27-12.83c-3.98,0-5.98,4.41-5.98,13.24Z"/>
    </g>
  </g>
</svg>