<?xml version="1.0" encoding="UTF-8"?>
<svg id="Layer_2" data-name="Layer 2" xmlns="http://www.w3.org/2000/svg" viewBox="0 0 103.65 170">
  <defs>
    <style>
      .cls-1 {
        fill: none;
        stroke: #231f20;
        stroke-miterlimit: 10;
        stroke-width: 5px;
      }

      .cls-2 {
        fill: #231f20;
        stroke-width: 0px;
      }
    </style>
  </defs>
  <g id="touch">
    <path class="cls-2" d="m103.65,91.5c-2.21-3.48-8.35-3.56-12.98-6.52-3.98-2.54-8.55-4.06-14.45-5.4-4.95-1.12-7.5-4.76-13.03-3.58h-11.04V25.04c0-4.44-3.6-8.04-8.04-8.04h-.93c-4.44,0-8.04,3.6-8.04,8.04v82.05l-18.06-14.55c-4.52-3.64-11.13-2.93-14.76,1.59-3.64,4.52-2.93,11.13,1.59,14.76l31.24,25.16v15.94l-3,20h62l-2-20,11.5-58.5Z"/>
    <path class="cls-1" d="m27.66,56.46c-7.85-5.3-13.01-14.28-13.01-24.46C14.65,15.71,27.86,2.5,44.15,2.5s29.5,13.21,29.5,29.5c0,11.4-6.47,21.29-15.93,26.2"/>
  </g>
</svg>